<svg width="738" height="602" xmlns="http://www.w3.org/2000/svg" xmlns:xlink="http://www.w3.org/1999/xlink" overflow="hidden"><defs><clipPath id="clip0"><rect x="0" y="0" width="738" height="602"/></clipPath></defs><g clip-path="url(#clip0)"><rect x="0" y="0" width="738" height="602.198" fill="#FFFFFF" fill-opacity="0"/><path d="M-2.77474 601.646 10.356 592.868 12.1398 591.626 14.4251 594.911 12.579 596.195-0.551747 604.973ZM21.9916 584.767 23.539 583.69 25.2212 582.47 27.5687 585.711 25.8244 586.975 24.277 588.052ZM34.9409 575.426 36.2001 574.513 47.7172 565.845 50.1225 569.044 38.5476 577.754 37.2883 578.667ZM57.1651 558.496 60.1643 556.157 60.2907 556.055 62.8058 559.167 62.624 559.314 59.6249 561.653ZM69.6251 548.507 73.4091 545.447 81.9154 538.311 84.4863 541.377 75.9242 548.56 72.1403 551.619ZM91.0147 530.534 94.036 527.91 96.6588 530.933 93.6376 533.556ZM103.011 519.987 110.447 513.317 114.836 509.249 117.555 512.186 113.118 516.297 105.682 522.967ZM123.642 501.09 123.66 501.074 126.51 498.346 129.276 501.239 126.379 504.01 126.361 504.027ZM135.184 490.047 136.457 488.83 146.573 478.845 149.383 481.694 139.222 491.722 137.95 492.94ZM155.027 470.364 157.833 467.511 160.685 470.318 157.879 473.171ZM166.2 458.941 177.266 447.377 180.157 450.144 169.09 461.708ZM185.458 438.636 188.189 435.71 191.113 438.442 188.383 441.367ZM196.342 426.928 207.138 415.111 210.091 417.81 199.296 429.628ZM215.227 406.248 217.919 403.286 220.879 405.978 218.188 408.94ZM225.992 394.402 236.757 382.556 239.718 385.248 228.953 397.094ZM244.831 373.672 247.522 370.71 250.483 373.402 247.791 376.364ZM255.596 361.826 258.517 358.611 266.559 350.109 269.465 352.86 261.478 361.303 258.556 364.518ZM274.927 341.45 277.731 338.595 280.585 341.4 277.781 344.255ZM286.328 330.154 287.108 329.394 293.772 323.226 298.269 319.326 300.889 322.351 296.489 326.163 289.899 332.261 289.119 333.021ZM307.713 311.665 310.936 309.294 313.307 312.518 310.084 314.889ZM321.359 302.757 323.847 301.456 327.258 299.88 331.294 298.3 336.603 296.793 337.688 300.646 332.749 302.028 328.934 303.514 325.7 305.004 323.212 306.304ZM348.908 295.587 352.893 295.227 353.253 299.213 349.268 299.573ZM365.188 295.676 379.054 296.634 381.382 297.097 380.572 301.016 378.779 300.627 364.913 299.669ZM393.256 300.152 396.631 301.343 397.114 301.538 395.599 305.242 395.301 305.117 391.926 303.927ZM408.207 306.734 412.474 309.155 417.34 312.279 421.727 315.398 421.912 315.541 419.441 318.688 419.408 318.659 415.177 315.646 410.5 312.636 406.233 310.215ZM431.279 323.201 433.023 324.717 434.313 325.935 431.564 328.843 430.399 327.738 428.654 326.222ZM442.893 334.443 443.984 335.563 449.583 341.75 453.614 346.513 450.56 349.098 446.616 344.435 441.12 338.357 440.029 337.238ZM461.224 355.871 462.265 357.176 463.705 359.071 460.52 361.492 459.138 359.672 458.097 358.367ZM470.944 368.701 478.217 378.712 480.323 381.711 477.049 384.012 474.98 381.065 467.707 371.054ZM487.223 391.536 489.523 394.811 486.249 397.112 483.949 393.837ZM496.41 404.648 505.591 417.761 502.314 420.056 493.133 406.943ZM512.479 427.548 514.834 430.783 511.599 433.139 509.244 429.904ZM521.885 440.453 529.676 450.739 531.576 453.138 528.439 455.623 526.487 453.156 518.696 442.87ZM539.023 462.494 541.579 465.573 538.502 468.13 535.945 465.051ZM549.318 474.686 553.746 479.762 559.978 486.558 557.03 489.263 550.732 482.393 546.303 477.317ZM568.219 495.147 571.069 497.956 568.261 500.807 565.411 497.998ZM579.681 506.238 584.013 510.277 590.908 516.374 591.503 516.875 588.927 519.936 588.258 519.373 581.285 513.205 576.953 509.166ZM600.699 524.511 603.823 527.012 601.324 530.137 598.2 527.637ZM613.305 534.289 613.816 534.677 622.305 540.779 626.279 543.479 624.03 546.79 619.97 544.029 611.398 537.865 610.886 537.477ZM636.249 550.066 639.617 552.227 637.457 555.596 634.089 553.435ZM649.824 558.443 650.893 559.09 661.621 565.196 663.654 566.283 661.768 569.812 659.642 568.674 648.823 562.515 647.754 561.868ZM674.209 571.89 677.784 573.686 675.989 577.263 672.414 575.467ZM688.506 578.966 698.184 583.522 702.995 585.659 701.371 589.317 696.481 587.143 686.803 582.587ZM713.974 590.418 717.66 591.976 716.103 595.663 712.417 594.105ZM728.753 596.465 730.77 597.274 740.585 601.048 739.15 604.783 729.279 600.988 727.263 600.179Z" fill="#7F7F7F"/><path d="M87 537.176 87 537.065 87 537.065 98.7661 526.821 110.173 516.578 121.254 506.334 132.037 496.091 147.716 480.725 162.879 465.36 177.617 449.995 196.771 429.508 201.496 424.386 205.305 420.518 503.21 420.351 504.144 419.264 507.435 414.142 510.494 409.021 516.143 398.777 521.347 388.534 526.214 378.29 530.813 368.046 537.305 352.681 543.405 337.316 549.19 321.951 554.716 306.585 561.749 286.098 568.46 265.611 574.899 245.124 582.62 219.515 590.025 193.906 597.156 168.297 605.392 137.567 613.32 106.836 620.974 76.1057 629.594 40.2533 632 30.0098 632 500.68 632 500.68 626.495 511.869 620.99 522.619 615.485 532.911 609.98 537.176 87 537.176 87 537.176" stroke="#0070C0" stroke-width="3.6675" stroke-linecap="square" stroke-linejoin="round" stroke-miterlimit="10" fill="none" fill-rule="evenodd"/><path d="M632 30.0098 665 426.14" stroke="#C00000" stroke-width="4.0009" stroke-linejoin="round" stroke-miterlimit="10" stroke-dasharray="22.205 9.60217" fill="none" fill-rule="evenodd"/><path d="M665 426.14 660.655 436.995 656.188 447.876 651.589 458.779 646.853 469.699 641.968 480.628 636.926 491.556 631.716 502.472 626.327 513.355 620.749 524.177 614.971 534.886 609.045 537.176 603.112 537.176 597.18 537.176 591.248 537.176 585.315 537.176 579.383 537.176 573.451 537.176 567.518 537.176 561.586 537.176 555.654 537.176 549.722 537.176 543.789 537.176 537.857 537.176 531.925 537.176 525.992 537.176 520.06 537.176 514.128 537.176 508.195 537.176 502.263 537.176 496.331 537.176 490.398 537.176 484.466 537.176 478.534 537.176 472.601 537.176 466.669 537.176 460.737 537.176 454.804 537.176 448.872 537.176 442.94 537.176 437.007 537.176 431.075 537.176 425.143 537.176 419.21 537.176 413.278 537.176 407.346 537.176 401.413 537.176 395.481 537.176 389.549 537.176 383.616 537.176 377.684 537.176 371.752 537.176 365.819 537.176 359.887 537.176 353.955 537.176 348.022 537.176 342.09 537.176 336.158 537.176 330.225 537.176 324.293 537.176 318.361 537.176 312.428 537.176 306.496 537.176 300.564 537.176 294.631 537.176 288.699 537.176 282.767 537.176 276.834 537.176 270.902 537.176 264.97 537.176 259.037 537.176 253.105 537.176 247.173 537.176 241.24 537.176 235.308 537.176 229.376 537.176 223.443 537.176 217.511 537.176 211.579 537.176 205.646 537.176 199.714 537.176 193.782 537.176 187.85 537.176 181.917 537.176 175.985 537.176 170.053 537.176 164.12 537.176 158.188 537.176 152.256 537.176 146.323 537.176 140.391 537.176 134.459 537.176 128.526 537.176 122.594 537.176 116.662 537.176 110.729 537.176 104.797 537.176 98.8646 537.176 92.9324 537.176 87 537.176" stroke="#C00000" stroke-width="4.0009" stroke-linejoin="round" stroke-miterlimit="10" stroke-dasharray="22.205 9.60217" fill="none" fill-rule="evenodd"/><path d="M351.5 297.598C351.5 295.388 353.291 293.596 355.5 293.596 357.709 293.596 359.5 295.388 359.5 297.598 359.5 299.807 357.709 301.599 355.5 301.599 353.291 301.599 351.5 299.807 351.5 297.598Z" stroke="#042433" stroke-width="2.66727" stroke-miterlimit="8" fill="#FFFFFF" fill-rule="evenodd"/><text font-family="Ysabeau Infant,Ysabeau Infant_MSFontService,sans-serif" font-weight="400" font-size="42.6903" transform="matrix(1 0 0 1.00033 80.2633 584)">1</text><text font-family="Ysabeau Infant,Ysabeau Infant_MSFontService,sans-serif" font-weight="400" font-size="42.6903" transform="matrix(1 0 0 1.00033 67.7831 522)">2</text><text font-family="Ysabeau Infant,Ysabeau Infant_MSFontService,sans-serif" font-weight="400" font-size="42.6903" transform="matrix(1 0 0 1.00033 647.835 34)">3</text><text font-family="Ysabeau Infant,Ysabeau Infant_MSFontService,sans-serif" font-weight="400" font-size="42.6903" transform="matrix(1 0 0 1.00033 647.835 522)">4s</text><text font-family="Ysabeau Infant,Ysabeau Infant_MSFontService,sans-serif" font-weight="400" font-size="42.6903" transform="matrix(1 0 0 1.00033 680.245 445)">4a</text><path d="M78.8594 431.975 13.1663 431.975 13.1663 366.261 15.8336 366.261 15.8336 430.641 14.5 429.307 78.8594 429.307ZM71.5296 424.82 81.5062 430.641 71.5296 436.463C70.8933 436.834 70.0767 436.619 69.7056 435.983 69.3345 435.346 69.5494 434.529 70.1856 434.158L78.1874 429.489 78.1874 431.794 70.1856 427.124C69.5494 426.753 69.3345 425.936 69.7056 425.3 70.0767 424.663 70.8933 424.448 71.5296 424.82ZM8.68028 373.593 14.5 363.613 20.3197 373.593C20.6908 374.229 20.4759 375.046 19.8397 375.418 19.2035 375.789 18.3868 375.574 18.0157 374.937L13.348 366.933 15.6519 366.933 10.9842 374.937C10.6131 375.574 9.79648 375.789 9.16027 375.418 8.52405 375.046 8.30916 374.229 8.68028 373.593Z" fill="#7F7F7F"/><text font-family="Ysabeau Infant,Ysabeau Infant_MSFontService,sans-serif" font-style="italic" font-weight="400" font-size="24.0133" transform="matrix(1 0 0 1.00033 21.1455 390)">S</text><text font-family="Ysabeau Infant,Ysabeau Infant_MSFontService,sans-serif" font-style="italic" font-weight="400" font-size="24.0133" transform="matrix(1 0 0 1.00033 61.8213 419)">T</text></g></svg>